<svg width="316" height="149" viewBox="0 0 316 149" fill="none" xmlns="http://www.w3.org/2000/svg">
<path fill-rule="evenodd" clip-rule="evenodd" d="M0.0110574 70.3174C0.903513 34.1425 55.6188 5.28275 127.597 0C131.686 7.14647 144.047 12.3402 158.661 12.3402C172.423 12.3402 184.187 7.73459 188.927 1.22975C262.078 9.52997 316.82 41.4286 315.915 78.1108C315.029 114.013 261.13 142.709 189.956 148.305C189.095 141.448 175.564 136 159 136C143.222 136 130.197 140.943 128.251 147.338C54.4733 139.261 -0.89904 107.209 0.0110574 70.3174Z" fill="#F5F5F5"/>
<path d="M96.0227 78.0057V83.6307H73.1136V78.0057H96.0227ZM123.387 107.716C120.012 107.716 117.004 107.136 114.362 105.977C111.737 104.818 109.648 103.207 108.097 101.145C106.563 99.0653 105.728 96.6534 105.592 93.9091H112.035C112.171 95.5966 112.751 97.054 113.773 98.2812C114.796 99.4915 116.134 100.429 117.788 101.094C119.441 101.759 121.273 102.091 123.285 102.091C125.535 102.091 127.529 101.699 129.268 100.915C131.006 100.131 132.37 99.0398 133.359 97.642C134.347 96.2443 134.842 94.625 134.842 92.7841C134.842 90.858 134.364 89.1619 133.41 87.696C132.455 86.2131 131.058 85.054 129.217 84.2188C127.376 83.3835 125.126 82.9659 122.467 82.9659H118.273V77.3409H122.467C124.546 77.3409 126.37 76.9659 127.938 76.2159C129.523 75.4659 130.759 74.4091 131.646 73.0455C132.549 71.6818 133.001 70.0795 133.001 68.2386C133.001 66.4659 132.609 64.9233 131.825 63.6108C131.04 62.2983 129.933 61.2756 128.501 60.5426C127.086 59.8097 125.415 59.4432 123.489 59.4432C121.683 59.4432 119.978 59.7756 118.376 60.4403C116.79 61.0881 115.495 62.0341 114.489 63.2784C113.484 64.5057 112.938 65.9886 112.853 67.7273H106.717C106.819 64.983 107.646 62.5795 109.197 60.517C110.748 58.4375 112.776 56.8182 115.282 55.6591C117.805 54.5 120.575 53.9205 123.592 53.9205C126.83 53.9205 129.609 54.5767 131.927 55.8892C134.245 57.1847 136.026 58.8977 137.271 61.0284C138.515 63.1591 139.137 65.4602 139.137 67.9318C139.137 70.8807 138.362 73.3949 136.81 75.4744C135.276 77.554 133.188 78.9943 130.546 79.7955V80.2045C133.853 80.75 136.435 82.1562 138.293 84.4233C140.151 86.6733 141.08 89.4602 141.08 92.7841C141.08 95.6307 140.305 98.1875 138.754 100.455C137.219 102.705 135.123 104.477 132.464 105.773C129.805 107.068 126.779 107.716 123.387 107.716ZM167.901 107.716C164.901 107.716 162.2 107.119 159.796 105.926C157.393 104.733 155.467 103.097 154.018 101.017C152.569 98.9375 151.776 96.5682 151.64 93.9091H157.776C158.015 96.2784 159.089 98.2386 160.998 99.7898C162.924 101.324 165.225 102.091 167.901 102.091C170.049 102.091 171.958 101.588 173.629 100.582C175.316 99.5767 176.637 98.196 177.592 96.4403C178.563 94.6676 179.049 92.6648 179.049 90.4318C179.049 88.1477 178.546 86.1108 177.54 84.321C176.552 82.5142 175.188 81.0909 173.45 80.0511C171.711 79.0114 169.725 78.483 167.492 78.4659C165.89 78.4489 164.245 78.696 162.558 79.2074C160.87 79.7017 159.481 80.3409 158.39 81.125L152.458 80.4091L155.629 54.6364H182.833V60.2614H160.947L159.106 75.7045H159.413C160.487 74.8523 161.833 74.1449 163.452 73.5824C165.072 73.0199 166.759 72.7386 168.515 72.7386C171.719 72.7386 174.575 73.5057 177.08 75.0398C179.603 76.5568 181.58 78.6364 183.012 81.2784C184.461 83.9205 185.185 86.9375 185.185 90.3295C185.185 93.6705 184.435 96.6534 182.935 99.2784C181.452 101.886 179.407 103.949 176.799 105.466C174.191 106.966 171.225 107.716 167.901 107.716ZM222.036 97.1818V94.4205C222.036 92.5114 222.428 90.7642 223.212 89.179C224.013 87.5767 225.172 86.2983 226.689 85.3438C228.223 84.3722 230.081 83.8864 232.263 83.8864C234.479 83.8864 236.337 84.3722 237.837 85.3438C239.337 86.2983 240.47 87.5767 241.237 89.179C242.004 90.7642 242.388 92.5114 242.388 94.4205V97.1818C242.388 99.0909 241.996 100.847 241.212 102.449C240.445 104.034 239.303 105.312 237.786 106.284C236.286 107.239 234.445 107.716 232.263 107.716C230.047 107.716 228.18 107.239 226.663 106.284C225.146 105.312 223.996 104.034 223.212 102.449C222.428 100.847 222.036 99.0909 222.036 97.1818ZM227.251 94.4205V97.1818C227.251 98.767 227.626 100.19 228.376 101.452C229.126 102.696 230.422 103.318 232.263 103.318C234.053 103.318 235.314 102.696 236.047 101.452C236.797 100.19 237.172 98.767 237.172 97.1818V94.4205C237.172 92.8352 236.814 91.4205 236.098 90.1761C235.382 88.9148 234.104 88.2841 232.263 88.2841C230.473 88.2841 229.186 88.9148 228.402 90.1761C227.635 91.4205 227.251 92.8352 227.251 94.4205ZM195.956 67.2159V64.4545C195.956 62.5455 196.348 60.7983 197.132 59.2131C197.933 57.6108 199.092 56.3324 200.609 55.3778C202.143 54.4062 204.001 53.9205 206.183 53.9205C208.399 53.9205 210.257 54.4062 211.757 55.3778C213.257 56.3324 214.391 57.6108 215.158 59.2131C215.925 60.7983 216.308 62.5455 216.308 64.4545V67.2159C216.308 69.125 215.916 70.8807 215.132 72.483C214.365 74.0682 213.223 75.3466 211.706 76.3182C210.206 77.2727 208.365 77.75 206.183 77.75C203.967 77.75 202.101 77.2727 200.584 76.3182C199.067 75.3466 197.916 74.0682 197.132 72.483C196.348 70.8807 195.956 69.125 195.956 67.2159ZM201.172 64.4545V67.2159C201.172 68.8011 201.547 70.2244 202.297 71.4858C203.047 72.7301 204.342 73.3523 206.183 73.3523C207.973 73.3523 209.234 72.7301 209.967 71.4858C210.717 70.2244 211.092 68.8011 211.092 67.2159V64.4545C211.092 62.8693 210.734 61.4545 210.018 60.2102C209.303 58.9489 208.024 58.3182 206.183 58.3182C204.393 58.3182 203.107 58.9489 202.322 60.2102C201.555 61.4545 201.172 62.8693 201.172 64.4545ZM197.899 107L233.899 54.6364H239.729L203.729 107H197.899Z" fill="black"/>
</svg>
